<svg width="34" height="38" viewBox="0 0 34 38" fill="none" xmlns="http://www.w3.org/2000/svg">
<path d="M20.5962 20.7678C21.5725 19.7915 21.5725 18.2085 20.5962 17.2322L4.68629 1.32233C3.70998 0.34602 2.12707 0.34602 1.15076 1.32233C0.174447 2.29864 0.174447 3.88155 1.15076 4.85786L15.2929 19L1.15076 33.1421C0.174447 34.1184 0.174447 35.7014 1.15076 36.6777C2.12707 37.654 3.70998 37.654 4.68629 36.6777L20.5962 20.7678ZM16 21.5H18.8284V16.5H16V21.5Z" fill="black"/>
<path d="M32.5962 20.7678C33.5725 19.7915 33.5725 18.2085 32.5962 17.2322L16.6863 1.32233C15.71 0.34602 14.1271 0.34602 13.1508 1.32233C12.1744 2.29864 12.1744 3.88155 13.1508 4.85786L27.2929 19L13.1508 33.1421C12.1744 34.1184 12.1744 35.7014 13.1508 36.6777C14.1271 37.654 15.71 37.654 16.6863 36.6777L32.5962 20.7678ZM28 21.5H30.8284V16.5H28V21.5Z" fill="black"/>
</svg>
