<svg width="34" height="38" viewBox="0 0 34 38" fill="none" xmlns="http://www.w3.org/2000/svg">
<path d="M1.23224 17.2322C0.255926 18.2085 0.255926 19.7915 1.23224 20.7678L17.1421 36.6777C18.1184 37.654 19.7014 37.654 20.6777 36.6777C21.654 35.7014 21.654 34.1184 20.6777 33.1421L6.53554 19L20.6777 4.85786C21.654 3.88155 21.654 2.29864 20.6777 1.32233C19.7014 0.34602 18.1184 0.34602 17.1421 1.32233L1.23224 17.2322ZM5.82843 16.5H3L3 21.5H5.82843L5.82843 16.5Z" fill="black"/>
<path d="M13.2322 17.2322C12.2559 18.2085 12.2559 19.7915 13.2322 20.7678L29.1421 36.6777C30.1184 37.654 31.7014 37.654 32.6777 36.6777C33.654 35.7014 33.654 34.1184 32.6777 33.1421L18.5355 19L32.6777 4.85786C33.654 3.88155 33.654 2.29864 32.6777 1.32233C31.7014 0.34602 30.1184 0.34602 29.1421 1.32233L13.2322 17.2322ZM17.8284 16.5H15V21.5H17.8284V16.5Z" fill="black"/>
</svg>
